<svg width="41" height="41" fill="none" xmlns="http://www.w3.org/2000/svg"><path d="M39.02 11.89L23.11 1.554a4.566 4.566 0 00-4.966-.002L2.24 11.86a3.52 3.52 0 00-1.612 2.964v25.122c0 .48.39.87.87.87h38.261c.48 0 .87-.39.87-.87V14.853a3.52 3.52 0 00-1.609-2.963zm-7.088 27.187H9.323V36.47h22.609v2.608zm0-4.347H9.323v-1.74h22.609v1.74zm0-6.957H17.149a.87.87 0 000 1.739h14.783v1.74H9.323v-1.74h2.609a.87.87 0 000-1.739H9.323v-2.609h22.609v2.609zm6.956 11.304h-5.217V24.295a.87.87 0 00-.87-.87H8.454a.87.87 0 00-.87.87v14.782H2.367V14.825c0-.032 0-.064.003-.095H6.8a.87.87 0 000-1.74H3.693L19.09 3.011a2.825 2.825 0 013.073.002l15.909 10.336c.511.332.816.894.816 1.504v24.224z" fill="#fff"/><path d="M32.801 16.469H8.454a.87.87 0 00-.87.87v3.477c0 .48.39.87.87.87H32.8c.48 0 .87-.39.87-.87v-3.478a.87.87 0 00-.87-.87zM16.28 19.947H9.323v-1.74h6.957v1.74zm6.956 0H18.02v-1.74h5.217v1.74zm8.696 0h-6.957v-1.74h6.957v1.74z" fill="#fff"/></svg>