<svg width="23" height="23" fill="none" xmlns="http://www.w3.org/2000/svg"><path d="M16.172 1.902A4.771 4.771 0 0120.93 6.66v9.513a4.771 4.771 0 01-4.757 4.757H6.66a4.771 4.771 0 01-4.757-4.757V6.66A4.771 4.771 0 016.66 1.902h9.513zm0-1.902H6.66C2.997 0 0 2.997 0 6.66v9.512c0 3.663 2.997 6.66 6.66 6.66h9.512c3.663 0 6.66-2.997 6.66-6.66V6.66c0-3.662-2.997-6.659-6.66-6.659z" fill="#fff"/><path d="M17.6 6.66a1.427 1.427 0 110-2.855 1.427 1.427 0 010 2.854zm-6.184.95a3.806 3.806 0 110 7.612 3.806 3.806 0 010-7.612zm0-1.902a5.708 5.708 0 100 11.416 5.708 5.708 0 000-11.416z" fill="#fff"/></svg>