<svg width="231" height="59" fill="none" xmlns="http://www.w3.org/2000/svg"><path d="M67.718 32.966V17.094c0-.765.206-1.353.613-1.76.407-.407.99-.608 1.76-.608h10.568c.765 0 1.353.162 1.76.495.407.329.608.804.608 1.427 0 .622-.201 1.103-.608 1.436-.407.338-.995.505-1.76.505h-8.358v4.853h7.682c.764 0 1.353.162 1.755.48.401.324.603.79.603 1.402 0 .613-.201 1.083-.603 1.407-.402.324-.99.49-1.755.49h-7.681v5.745c0 .765-.197 1.348-.589 1.75-.392.402-.96.603-1.696.603-.745 0-1.318-.201-1.71-.603-.393-.402-.589-.985-.589-1.75zM85.337 20.8a9.965 9.965 0 012.093-3.373c.902-.96 2.044-1.71 3.416-2.255 1.373-.549 2.897-.818 4.574-.818 1.676 0 3.2.27 4.573.818 1.373.544 2.515 1.294 3.417 2.255.907.956 1.603 2.084 2.098 3.383.495 1.294.74 2.7.74 4.21 0 1.515-.245 2.922-.74 4.226-.495 1.299-1.191 2.431-2.098 3.387-.902.956-2.039 1.706-3.407 2.24-1.382.544-2.907.819-4.583.819-1.677 0-3.201-.27-4.573-.81-1.373-.543-2.515-1.293-3.417-2.25a9.991 9.991 0 01-2.098-3.386c-.495-1.304-.74-2.711-.74-4.226 0-1.51.25-2.916.745-4.22zm5.5 9.19c1.073 1.226 2.603 1.839 4.583 1.839s3.51-.613 4.588-1.838c1.078-1.226 1.618-2.883 1.618-4.97 0-2.084-.54-3.74-1.618-4.966s-2.608-1.838-4.588-1.838-3.51.612-4.583 1.838c-1.079 1.225-1.623 2.882-1.623 4.965 0 2.088.544 3.745 1.623 4.97zM108.7 20.8a9.974 9.974 0 012.093-3.373c.902-.96 2.044-1.71 3.417-2.255 1.373-.549 2.897-.818 4.573-.818 1.677 0 3.201.27 4.574.818 1.372.544 2.515 1.294 3.416 2.255.907.956 1.603 2.084 2.099 3.383.495 1.294.74 2.7.74 4.21 0 1.515-.245 2.922-.74 4.226-.496 1.299-1.192 2.431-2.099 3.387-.901.956-2.039 1.706-3.406 2.24-1.383.544-2.907.819-4.584.819-1.676 0-3.2-.27-4.573-.81-1.373-.543-2.515-1.293-3.417-2.25a10.017 10.017 0 01-2.098-3.386c-.495-1.304-.74-2.711-.74-4.226 0-1.51.25-2.916.745-4.22zm5.5 9.19c1.074 1.226 2.603 1.839 4.583 1.839 1.981 0 3.51-.613 4.589-1.838 1.078-1.226 1.617-2.883 1.617-4.97 0-2.084-.539-3.74-1.617-4.966-1.079-1.226-2.608-1.838-4.589-1.838-1.98 0-3.509.612-4.583 1.838-1.078 1.225-1.622 2.882-1.622 4.965 0 2.088.544 3.745 1.622 4.97zm17.692 2.962V17.094c0-.765.206-1.353.613-1.76.407-.407.99-.608 1.76-.608h5.657c1.485 0 2.818.172 3.999.515 1.182.348 2.172.819 2.971 1.422a7.913 7.913 0 011.995 2.21 9.64 9.64 0 011.157 2.833 14.37 14.37 0 01.363 3.314c0 1.201-.123 2.304-.363 3.319a9.555 9.555 0 01-1.157 2.828 7.842 7.842 0 01-1.995 2.211c-.799.608-1.789 1.078-2.971 1.426-1.181.343-2.514.515-3.999.515h-5.657c-.77 0-1.353-.206-1.76-.613-.407-.406-.613-.99-.613-1.754zm4.583-14.363v12.867h3.447c3.916 0 5.872-2.146 5.872-6.436 0-4.289-1.956-6.431-5.872-6.431h-3.447zm16.207-1.495c0-.765.206-1.353.613-1.76.407-.407.99-.608 1.76-.608h7.206c1.196 0 2.254.108 3.176.329.917.22 1.657.51 2.211.863a4.785 4.785 0 011.362 1.279c.358.495.599.995.736 1.49.132.5.201 1.03.201 1.598 0 1.034-.275 1.922-.829 2.662-.549.74-1.294 1.255-2.23 1.544 1.338.402 2.309 1.024 2.907 1.872.598.848.897 1.829.897 2.937a6.11 6.11 0 01-.245 1.72c-.162.55-.446 1.088-.848 1.623a5.81 5.81 0 01-1.505 1.377c-.603.387-1.383.701-2.343.941-.956.24-2.04.358-3.245.358h-7.451c-.77 0-1.353-.206-1.76-.613-.407-.406-.613-.99-.613-1.754V17.094zm9.824 14.377c2.348 0 3.519-.819 3.519-2.456 0-.765-.255-1.363-.76-1.789-.509-.426-1.269-.637-2.284-.637h-5.716v4.882h5.241zm.343-8.475c.833 0 1.451-.196 1.853-.593.402-.397.603-.927.603-1.589 0-.7-.221-1.245-.657-1.637-.442-.392-1.236-.588-2.387-.588h-4.996v4.407h5.584zm8.888 9.308l6.392-15.396c.603-1.466 1.647-2.196 3.128-2.196 1.475 0 2.514.73 3.117 2.196l6.392 15.396c.172.442.26.844.26 1.206 0 .314-.103.672-.309 1.069-.206.397-.696.642-1.461.74-.142.02-.274.03-.402.03-.505 0-.965-.138-1.372-.402-.407-.27-.75-.77-1.039-1.51l-1.094-2.628h-8.195l-1.094 2.628c-.298.74-.646 1.24-1.053 1.51a2.45 2.45 0 01-1.358.401c-.137 0-.27-.01-.402-.029-.78-.098-1.27-.343-1.476-.74-.206-.397-.309-.75-.309-1.054 0-.363.094-.77.275-1.22zm12.206-5.098l-2.686-6.666-2.682 6.666h5.368zm9.462 4.378l9.509-12.995h-7.872c-.765 0-1.353-.167-1.76-.505-.407-.333-.608-.814-.608-1.436 0-.623.201-1.098.608-1.427.407-.333.995-.495 1.76-.495h12.078c.73 0 1.279.147 1.652.437.372.294.559.681.559 1.171 0 .652-.28 1.358-.843 2.123l-9.525 13h8.157c.765 0 1.353.166 1.76.494.407.329.612.81.612 1.427 0 .622-.205 1.103-.612 1.436-.407.338-.995.505-1.76.505h-12.348c-.74 0-1.294-.142-1.666-.431-.373-.285-.559-.682-.559-1.177 0-.632.284-1.343.858-2.127zm17.863.72l6.392-15.396c.603-1.466 1.647-2.196 3.128-2.196 1.475 0 2.514.73 3.117 2.196l6.392 15.396c.172.442.26.844.26 1.206 0 .314-.103.672-.309 1.069-.206.397-.696.642-1.46.74-.143.02-.275.03-.403.03a2.48 2.48 0 01-1.372-.402c-.407-.27-.75-.77-1.039-1.51l-1.093-2.628h-8.196l-1.093 2.628c-.299.74-.647 1.24-1.054 1.51a2.45 2.45 0 01-1.358.401c-.137 0-.27-.01-.402-.029-.779-.098-1.27-.343-1.476-.74-.205-.397-.308-.75-.308-1.054 0-.363.093-.77.274-1.22zm12.206-5.098l-2.686-6.666-2.682 6.666h5.368z" fill="#2B2A29"/><path d="M67.753 47.04V39.6c0-.287.074-.503.223-.654.149-.15.368-.224.654-.224h4.872c1.099 0 1.95.274 2.55.821.6.547.902 1.316.902 2.307 0 .993-.302 1.762-.902 2.309-.6.547-1.451.82-2.55.82h-4.038v2.06c0 .282-.074.499-.22.65-.15.15-.36.227-.633.227-.278 0-.49-.074-.637-.225-.149-.149-.221-.368-.221-.652zm5.75-3.521c.577 0 1.008-.147 1.295-.438.287-.293.429-.703.429-1.228 0-.528-.142-.937-.43-1.23-.286-.291-.717-.438-1.295-.438h-4.038v3.334h4.038zm15.9-3.919c0-.287.075-.503.223-.654.15-.15.368-.224.655-.224h5.014c1.037 0 1.849.254 2.433.762.582.51.876 1.224.876 2.143 0 .676-.188 1.243-.565 1.702-.376.46-.867.749-1.468.87l1.571 2.525c.118.188.18.367.18.538 0 .048-.014.136-.04.267-.026.13-.144.239-.359.324a.97.97 0 01-.365.077c-.36 0-.66-.186-.898-.558l-1.8-2.924h-3.752v2.59c0 .285-.072.504-.219.653-.144.151-.357.225-.635.225-.277 0-.488-.074-.634-.225-.145-.149-.217-.368-.217-.652V39.6zm5.892 3.469c.542 0 .943-.127 1.199-.381.256-.254.383-.608.383-1.061 0-.453-.127-.808-.383-1.062s-.657-.38-1.2-.38H91.11v2.884h4.187zm15.707-1.27a4.08 4.08 0 01.696-1.31c.313-.4.698-.742 1.153-1.029.455-.287 1.002-.512 1.641-.674a8.601 8.601 0 012.112-.243c.771 0 1.473.08 2.11.243.637.162 1.184.387 1.639.674.456.287.841.628 1.154 1.029.315.4.547.838.696 1.315.148.475.225.98.225 1.514a5.07 5.07 0 01-.225 1.517 4.08 4.08 0 01-.696 1.315 4.494 4.494 0 01-1.154 1.029c-.455.287-1.002.51-1.639.674a8.55 8.55 0 01-2.11.243 8.601 8.601 0 01-2.112-.243c-.639-.164-1.186-.387-1.641-.674a4.506 4.506 0 01-1.153-1.029 4.08 4.08 0 01-.696-1.315 4.977 4.977 0 01-.226-1.517c0-.534.075-1.04.226-1.519zm1.505 1.52c0 .303.033.593.097.866.065.274.164.536.297.786.136.25.316.474.537.676.223.201.481.376.777.525.293.149.645.265 1.05.346a6.87 6.87 0 001.339.123 6.81 6.81 0 001.338-.123 4.139 4.139 0 001.048-.346c.295-.149.554-.324.777-.525.221-.202.4-.427.534-.676.136-.25.234-.512.3-.786.063-.273.094-.563.094-.867 0-.302-.031-.59-.094-.864a3.198 3.198 0 00-.3-.786 2.538 2.538 0 00-.534-.676 3.512 3.512 0 00-.777-.525 4.13 4.13 0 00-1.048-.348 6.802 6.802 0 00-1.338-.12 6.88 6.88 0 00-1.339.12 4.093 4.093 0 00-1.05.348 3.488 3.488 0 00-.777.525 2.591 2.591 0 00-.537.676c-.133.25-.232.512-.297.786a3.789 3.789 0 00-.097.864zm22.345-3.719c0-.287.075-.503.224-.654.148-.15.367-.224.654-.224h4.373c.768 0 1.451.117 2.044.353.595.234 1.077.562 1.444.98.368.42.644.904.83 1.454.186.549.28 1.153.28 1.81a5.66 5.66 0 01-.28 1.816 4.193 4.193 0 01-.83 1.45c-.367.417-.849.743-1.444.979-.593.234-1.276.352-2.044.352h-4.373c-.287 0-.506-.074-.654-.225-.149-.149-.224-.368-.224-.652V39.6zm1.705 6.861h3.546c.945 0 1.659-.282 2.14-.85.484-.566.725-1.33.725-2.293 0-.96-.241-1.724-.725-2.291-.481-.567-1.195-.85-2.14-.85h-3.546v6.284zm20.568-2.68v-4.18c0-.288.072-.504.217-.655.146-.15.357-.224.635-.224.277 0 .49.075.634.224.147.15.219.367.219.654v4.18c0 .941.236 1.653.707 2.136.473.484 1.236.725 2.293.725 1.055 0 1.823-.243 2.303-.73.477-.483.718-1.194.718-2.13v-4.18c0-.288.072-.504.216-.655.147-.15.357-.224.635-.224s.49.075.635.224c.146.15.218.367.218.654v4.18c0 2.878-1.575 4.316-4.725 4.316-3.138 0-4.705-1.438-4.705-4.316zm21.859-.463c0-.534.075-1.04.226-1.514a4.04 4.04 0 01.696-1.315c.312-.4.698-.742 1.153-1.029.455-.287 1.002-.512 1.639-.674a8.55 8.55 0 012.108-.243c1.168 0 2.188.19 3.066.571.273.11.444.234.516.374a.82.82 0 01.105.35.762.762 0 01-.096.353c-.129.247-.337.372-.628.372a1.75 1.75 0 01-.532-.103 6.605 6.605 0 00-2.431-.462c-.486 0-.933.04-1.335.12a4.098 4.098 0 00-1.049.349 3.505 3.505 0 00-.776.525 2.591 2.591 0 00-.537.676c-.133.25-.232.512-.297.786a3.789 3.789 0 00-.097.864c0 .304.033.593.097.867.065.274.164.536.297.786.136.25.316.474.537.676.223.201.481.376.776.525a4.1 4.1 0 001.049.346c.402.081.849.123 1.335.123.834 0 1.643-.154 2.431-.462.206-.068.383-.103.532-.103.291 0 .499.125.628.372.063.12.096.236.096.352a.832.832 0 01-.105.353c-.072.142-.243.265-.516.372-.897.38-1.919.57-3.066.57a8.55 8.55 0 01-2.108-.242c-.637-.164-1.184-.387-1.639-.674a4.49 4.49 0 01-1.153-1.029 4.029 4.029 0 01-.696-1.317 4.962 4.962 0 01-.226-1.515zm21.752-4.41c.151-.124.368-.185.654-.185h7.901c.285 0 .503.06.652.185.151.123.226.303.226.539 0 .238-.075.42-.226.545-.149.124-.367.186-.652.186h-3.097v6.86c0 .285-.074.504-.219.653-.146.151-.356.225-.634.225s-.49-.074-.635-.225c-.147-.149-.219-.368-.219-.652v-6.861h-3.097c-.286 0-.503-.062-.654-.186-.149-.125-.223-.307-.223-.545 0-.236.074-.416.223-.539zm21.485 7.417a.652.652 0 01.622-.371c.155 0 .334.034.538.102a8.484 8.484 0 003.066.585c1.884 0 2.828-.438 2.828-1.316 0-.392-.208-.685-.622-.877-.416-.193-1.186-.361-2.315-.506-.78-.098-1.436-.227-1.972-.39-.536-.16-.961-.356-1.276-.592-.315-.235-.541-.497-.676-.786a2.288 2.288 0 01-.206-1.002c0-.386.074-.734.225-1.042.149-.311.383-.587.703-.828.317-.24.75-.428 1.3-.56.549-.133 1.199-.199 1.945-.199 1.287 0 2.414.169 3.38.506.291.09.474.2.549.334a.723.723 0 01.111.34c0 .111-.03.23-.096.359a.717.717 0 01-.678.409c-.116 0-.27-.024-.462-.077a9.882 9.882 0 00-2.751-.416c-.838 0-1.464.092-1.878.278-.416.186-.624.484-.624.895 0 .364.197.635.587.817.392.181 1.103.339 2.134.473a14.67 14.67 0 011.939.358c.523.14.972.324 1.341.547.372.226.644.497.812.815.169.32.254.7.254 1.144 0 .937-.385 1.633-1.158 2.088-.772.455-1.886.683-3.344.683-1.461 0-2.716-.226-3.764-.674-.276-.11-.449-.236-.514-.377a.855.855 0 01-.101-.348c0-.118.035-.242.103-.372zM48.81 11.584a.692.692 0 011.198-.694l4.625 8.012a.692.692 0 01-1.197.694l-4.625-8.012zm-44.09-.691a.69.69 0 011.196.688L1.29 19.593a.69.69 0 01-1.197-.687l4.626-8.013zm20.547 6.59a.69.69 0 011.197.689l-9.192 15.921a.69.69 0 01-1.197-.688l9.192-15.921zm0 5.271a.692.692 0 011.197.693l-4.626 8.012a.692.692 0 01-1.197-.693l4.627-8.012zM22.985.347a.69.69 0 011.197.688L1.29 40.685a.69.69 0 01-1.197-.689L22.985.347zm2.282 6.59a.692.692 0 011.197.692L8.14 39.37a.692.692 0 01-1.197-.694l18.325-31.74zm0 5.272a.692.692 0 011.197.693l-13.758 23.83a.692.692 0 01-1.197-.693l13.758-23.83zm0-10.543a.69.69 0 011.197.687l-22.89 39.65a.69.69 0 01-1.198-.688l22.892-39.65zM13.852 5.617a.692.692 0 011.197.693L1.29 30.141a.692.692 0 01-1.197-.693l13.759-23.83zm4.566-2.636a.692.692 0 011.197.693L1.29 35.414a.692.692 0 01-1.197-.693L18.418 2.98zM9.286 8.256a.69.69 0 011.197.688L1.29 24.866a.69.69 0 01-1.197-.688L9.286 8.256zM22.737 34.4a.693.693 0 010-1.387h9.253a.693.693 0 010 1.387h-9.253zm-4.566 21.09a.693.693 0 010-1.386h18.385a.693.693 0 010 1.386H18.171zm4.566 2.637a.694.694 0 010-1.387h9.253a.693.693 0 010 1.387h-9.253zM4.472 44.945a.694.694 0 010-1.386h45.782a.694.694 0 010 1.386H4.472zm4.566 5.273a.694.694 0 010-1.387h36.65a.694.694 0 010 1.387H9.038zm4.566 2.636a.693.693 0 010-1.386h27.518a.693.693 0 010 1.386H13.604zm-9.132-5.273a.693.693 0 010-1.386h45.782a.693.693 0 010 1.386H4.472zm9.133-7.909a.693.693 0 010-1.386h27.517a.693.693 0 010 1.386H13.605zM9.039 42.31a.694.694 0 010-1.387h36.649a.694.694 0 010 1.387H9.038zm9.132-5.273a.693.693 0 010-1.386h18.385a.694.694 0 010 1.386H18.17zm10.091-18.862a.692.692 0 011.197-.694l9.193 15.923a.692.692 0 01-1.197.693l-9.193-15.922zm0 5.27a.69.69 0 011.197-.688l4.626 8.013a.69.69 0 01-1.197.688l-4.626-8.013zm2.284-22.406a.692.692 0 011.197-.693l22.89 39.648a.692.692 0 01-1.197.693L30.547 1.038zm-2.284 6.59a.692.692 0 011.197-.692l18.325 31.74a.692.692 0 01-1.197.692L28.262 7.628zm0 5.274a.692.692 0 011.197-.694L43.218 36.04a.692.692 0 01-1.197.694L28.262 12.902zm0-10.545a.692.692 0 011.197-.694L52.35 41.312a.692.692 0 01-1.197.693L28.264 2.357zm11.416 3.951a.69.69 0 011.197-.688l13.758 23.83a.69.69 0 01-1.197.688L39.678 6.308zm-4.566-2.636a.69.69 0 011.197-.688l18.325 31.739a.69.69 0 01-1.197.688L35.112 3.67zm9.132 5.275a.692.692 0 011.197-.693l9.192 15.921a.692.692 0 01-1.197.693l-9.192-15.92z" fill="#0066B2"/></svg>