<svg width="33" height="41" fill="none" xmlns="http://www.w3.org/2000/svg"><path d="M28.985 27.886a4.034 4.034 0 00.456-1.871v-1.913c0-.858.012-1.262.12-1.533.112-.277.383-.572.976-1.18l1.319-1.352c1.512-1.551 1.512-4.075 0-5.626l-1.319-1.353c-.591-.606-.862-.9-.972-1.171-.112-.276-.124-.682-.124-1.541V8.433c0-2.193-1.74-3.978-3.878-3.978h-1.865c-.836 0-1.23-.012-1.495-.124-.27-.114-.557-.392-1.15-1L19.734 1.98A3.803 3.803 0 0016.992.818a3.803 3.803 0 00-2.743 1.16l-1.318 1.353c-.592.607-.878.884-1.143.997-.269.115-.664.127-1.502.127H8.42c-2.139 0-3.879 1.785-3.879 3.978 0 .431.341.781.762.781.42 0 .762-.35.762-.781 0-1.332 1.056-2.415 2.355-2.415h1.865c2.017 0 2.295-.119 3.722-1.582l1.319-1.352a2.308 2.308 0 011.665-.704c.631 0 1.223.25 1.665.704l1.319 1.352c1.426 1.463 1.705 1.582 3.722 1.582h1.865c1.298 0 2.355 1.083 2.355 2.415v1.913c0 2.069.115 2.354 1.542 3.817l1.319 1.353a2.462 2.462 0 010 3.416l-1.32 1.352c-1.426 1.463-1.541 1.749-1.541 3.818v1.913c0 1.332-1.057 2.415-2.355 2.415h-1.865c-2.017 0-2.296.119-3.722 1.582l-1.319 1.352a2.316 2.316 0 01-3.33 0l-1.32-1.352c-1.426-1.464-1.704-1.582-3.721-1.582H8.42c-1.299 0-2.355-1.083-2.355-2.415v-1.913c0-2.07-.116-2.355-1.542-3.818l-1.319-1.352a2.462 2.462 0 010-3.416.796.796 0 000-1.105.748.748 0 00-1.077 0c-1.512 1.551-1.512 4.075 0 5.626l1.318 1.352c.592.607.862.9.972 1.172.112.276.124.681.124 1.541v1.913c0 .676.166 1.313.457 1.87L1.203 34.63a1.607 1.607 0 00.081 1.712c.353.513.946.76 1.545.645l3.495-.665 1.159 3.36a1.56 1.56 0 001.49 1.137 1.54 1.54 0 001.34-.794l4.142-7.36a3.81 3.81 0 005.073 0l4.143 7.36a1.537 1.537 0 001.538.78 1.56 1.56 0 001.292-1.123l1.159-3.36 3.494.665c.6.114 1.192-.132 1.545-.645a1.606 1.606 0 00.082-1.712l-3.796-6.743zM8.992 39.242l-.007.012c-.01.004-.034-.001-.039-.008a.795.795 0 00-.02-.064L7.543 35.17a.759.759 0 00-.857-.508l-4.135.788-.01.002c-.01-.005-.022-.025-.019-.041l3.522-6.256a3.796 3.796 0 002.377.838h1.865c.836 0 1.23.011 1.495.123.27.114.557.393 1.15 1l.403.414-4.34 7.712zm22.452-3.79l-.012-.002-4.135-.788a.76.76 0 00-.857.508l-1.384 4.012a.748.748 0 00-.02.065c-.006.006-.03.011-.038.008l-.008-.013-4.341-7.712.403-.414c.591-.606.878-.883 1.142-.996.27-.115.665-.127 1.503-.127h1.865a3.8 3.8 0 002.377-.838l3.524 6.262c0 .01-.012.03-.02.034z" fill="#fff"/><path d="M23.013 13.268c0-1.224-.971-2.22-2.164-2.22h-.84c-.17 0-.458 0-.513-.023-.056-.024-.267-.24-.38-.357l-.594-.608a2.122 2.122 0 00-1.53-.649c-.58 0-1.123.23-1.53.649l-.594.608c-.121.125-.324.333-.379.356-.056.024-.355.024-.515.024h-.84c-1.193 0-2.164.996-2.164 2.22v.86c0 .177 0 .47-.022.527-.024.058-.235.274-.348.39l-.593.61a2.233 2.233 0 00-.632 1.569c0 .594.224 1.151.632 1.57l.593.608c.121.124.324.332.347.389.024.058.024.364.024.528v.86c0 1.225.97 2.22 2.164 2.22h.839c.171 0 .458 0 .513.024.056.024.268.24.381.357l.593.608a2.13 2.13 0 003.061 0l.594-.609c.12-.124.323-.332.378-.355.057-.024.355-.024.515-.024h.84c1.193 0 2.164-.996 2.164-2.22v-.86c0-.177 0-.47.023-.527.023-.058.234-.274.347-.39l.594-.61c.407-.418.632-.975.632-1.569s-.225-1.151-.632-1.57l-.594-.608c-.12-.125-.324-.333-.346-.389-.024-.058-.024-.364-.024-.528v-.861zm-.114 4.42l-.593.61c-.717.735-.817.98-.817 2.021v.86a.65.65 0 01-.64.658h-.84c-1.014 0-1.253.102-1.97.837l-.594.61a.63.63 0 01-.907 0l-.593-.61c-.717-.735-.957-.837-1.971-.837h-.84a.65.65 0 01-.64-.657v-.861c0-1.04-.1-1.286-.817-2.022l-.593-.608a.661.661 0 01-.186-.465.66.66 0 01.186-.465l.593-.608c.718-.736.817-.982.817-2.022v-.861a.65.65 0 01.64-.657h.84c1.014 0 1.254-.102 1.971-.838l.594-.608a.631.631 0 01.906-.001l.593.61c.718.735.957.837 1.971.837h.84a.65.65 0 01.64.657v.86c0 1.041.1 1.287.817 2.023l.593.608a.67.67 0 010 .93zM5.124 12.963c.42 0 .762-.35.762-.781a.772.772 0 00-.762-.782.772.772 0 00-.762.782c0 .431.341.781.762.781z" fill="#fff"/></svg>