<svg width="40" height="41" fill="none" xmlns="http://www.w3.org/2000/svg"><path d="M19.733 10.74a.77.77 0 00.761-.754.772.772 0 00-.76-.809c-.46 0-.796.42-.761.809a.77.77 0 00.76.753z" fill="#fff"/><path d="M38.711 17.712l-3.281-.739a16.371 16.371 0 00-1.916-4.766l1.933-3.03a.796.796 0 00-.1-.98l-3.231-3.315a.748.748 0 00-.956-.102l-2.954 1.983a15.529 15.529 0 00-4.647-1.965l-.72-3.366a.767.767 0 00-.744-.613h-4.57a.767.767 0 00-.745.613l-.72 3.366a15.529 15.529 0 00-4.647 1.965L8.46 4.78a.748.748 0 00-.956.102L4.271 8.197a.796.796 0 00-.099.98l1.933 3.03a16.372 16.372 0 00-1.916 4.766l-3.281.739a.777.777 0 00-.598.763v4.687c0 .367.248.685.598.764l3.314.747a16.354 16.354 0 001.915 4.703l-1.965 3.085a.797.797 0 00.1.98l3.231 3.314a.748.748 0 00.955.102l3.048-2.04a15.54 15.54 0 004.529 1.904c.22 1.012.712 3.302.742 3.463a.767.767 0 00.748.635h4.57a.766.766 0 00.744-.614l.749-3.485a15.53 15.53 0 004.525-1.904l3.048 2.041c.302.202.7.16.955-.102l3.232-3.315a.796.796 0 00.099-.98l-1.965-3.084a16.361 16.361 0 001.915-4.703l3.314-.747a.777.777 0 00.599-.764v-4.687a.778.778 0 00-.599-.763zm-.925 4.822l-3.188.72a.772.772 0 00-.582.601 14.797 14.797 0 01-2.076 5.093.798.798 0 00-.003.86l1.896 2.976-2.357 2.418-2.938-1.967a.746.746 0 00-.83-.002 14.049 14.049 0 01-4.912 2.066.772.772 0 00-.591.597l-.722 3.36H18.14a491.24 491.24 0 00-.73-3.382.77.77 0 00-.587-.575 14.06 14.06 0 01-4.911-2.066.745.745 0 00-.83.002l-2.939 1.967-2.357-2.418 1.896-2.976a.798.798 0 00-.003-.86 14.8 14.8 0 01-2.076-5.093.772.772 0 00-.582-.602l-3.188-.719v-3.43l3.16-.712a.772.772 0 00.583-.608 14.818 14.818 0 012.072-5.154.799.799 0 00.001-.857l-1.863-2.92 2.357-2.417 2.847 1.91c.254.17.582.17.836 0a14.05 14.05 0 015.025-2.126.771.771 0 00.592-.599l.694-3.24h3.345l.694 3.24a.771.771 0 00.592.599 14.054 14.054 0 015.025 2.125.746.746 0 00.836.002l2.847-1.911 2.357 2.417-1.863 2.92a.798.798 0 000 .857 14.815 14.815 0 012.074 5.154c.06.303.288.542.583.608l3.159.711v3.431z" fill="#fff"/><path d="M31.117 19.893a11.697 11.697 0 00-8.143-10.238.758.758 0 00-.952.517.785.785 0 00.504.977c3.937 1.242 6.78 4.81 7.074 8.877l.001.022v.002c.496 6.059-4.189 11.002-9.868 11.002-5.46 0-9.902-4.556-9.902-10.156 0-4.65 2.598-8.204 7.127-9.753a.786.786 0 00.482-.988.757.757 0 00-.964-.494c-5.115 1.749-8.168 5.949-8.168 11.235 0 6.462 5.125 11.718 11.425 11.718 6.872 0 12.093-6.225 11.384-12.721z" fill="#fff"/><path d="M18.433 23.792a.75.75 0 001.077 0l3.809-3.906a.795.795 0 000-1.105.748.748 0 00-1.077 0l-3.27 3.354-.985-1.01a.748.748 0 00-1.077 0 .795.795 0 000 1.104l1.523 1.563z" fill="#fff"/><path d="M12.116 20.896c0 4.308 3.417 7.812 7.617 7.812s7.618-3.504 7.618-7.812-3.417-7.813-7.618-7.813c-4.2 0-7.617 3.505-7.617 7.813zm7.617-6.25c3.36 0 6.094 2.804 6.094 6.25s-2.733 6.25-6.094 6.25c-3.36 0-6.093-2.804-6.093-6.25s2.733-6.25 6.093-6.25z" fill="#fff"/></svg>