<svg width="23" height="23" viewBox="0 0 23 23" fill="none" xmlns="http://www.w3.org/2000/svg">
<path d="M21.7304 0H1.26962C0.932938 0.000136061 0.610084 0.133943 0.372014 0.372014C0.133943 0.610084 0.000136061 0.932938 0 1.26962V21.7304C0.000136061 22.0671 0.133943 22.3899 0.372014 22.628C0.610084 22.8661 0.932938 22.9999 1.26962 23H11.5V13.9643H8.75078V10.6786H11.5V8.06027C11.5 5.08978 13.5602 3.47259 16.214 3.47259C17.4836 3.47259 18.8492 3.56808 19.1665 3.61018V6.71261H17.0523C15.6087 6.71261 15.3335 7.39542 15.3335 8.40167V10.6786H18.7732L18.324 13.9643H15.3335V23H21.7304C22.0671 22.9999 22.3899 22.8661 22.628 22.628C22.8661 22.3899 22.9999 22.0671 23 21.7304V1.26962C22.9999 0.932938 22.8661 0.610084 22.628 0.372014C22.3899 0.133943 22.0671 0.000136061 21.7304 0Z" fill="white"/>
</svg>
