<svg width="41" height="41" viewBox="0 0 41 41" fill="none" xmlns="http://www.w3.org/2000/svg">
<path d="M39.0193 11.8903L23.1102 1.55447C21.6023 0.574942 19.6531 0.573848 18.1443 1.5519L2.23885 11.8606C1.22986 12.5146 0.627441 13.6228 0.627441 14.8252V39.9468C0.627441 40.427 1.01682 40.8163 1.49697 40.8163H8.45354H32.8013H39.7578C40.238 40.8163 40.6274 40.427 40.6274 39.9468V14.8528C40.6274 13.652 40.0263 12.5445 39.0193 11.8903ZM31.9318 39.0774H9.32307V36.4687H31.9317V39.0774H31.9318ZM31.9318 34.7295H9.32307V32.9904H31.9317V34.7295H31.9318ZM31.9318 27.773H17.1492C16.669 27.773 16.2796 28.1624 16.2796 28.6425C16.2796 29.1227 16.669 29.512 17.1492 29.512H31.9317V31.2512H9.32307V29.512H11.9317C12.4119 29.512 12.8013 29.1227 12.8013 28.6425C12.8013 28.1624 12.4119 27.773 11.9317 27.773H9.32307V25.1643H31.9317V27.773H31.9318ZM38.8883 39.0774H33.6709V24.2948C33.6709 23.8146 33.2815 23.4253 32.8013 23.4253H8.45354C7.97338 23.4253 7.584 23.8146 7.584 24.2948V39.0774H2.36658V14.8252C2.36658 14.7931 2.36791 14.7613 2.36955 14.7295H6.80135C7.2815 14.7295 7.67088 14.3401 7.67088 13.8599C7.67088 13.3798 7.2815 12.9904 6.80135 12.9904H3.6933L19.0902 3.01127C20.0237 2.40619 21.2297 2.40674 22.1626 3.01291L38.0718 13.3488C38.5831 13.6809 38.8883 14.2432 38.8883 14.8529V39.0774Z" fill="white"/>
<path d="M32.8013 16.4686H24.1057H17.1492H8.45352C7.97336 16.4686 7.58398 16.858 7.58398 17.3382V20.8164C7.58398 21.2966 7.97336 21.686 8.45352 21.686H17.1491H24.1056H32.8013C33.2814 21.686 33.6708 21.2966 33.6708 20.8164V17.3382C33.6709 16.8579 33.2815 16.4686 32.8013 16.4686ZM16.2796 19.9468H9.32313V18.2077H16.2796V19.9468ZM23.2361 19.9468H18.0187V18.2077H23.2361V19.9468ZM31.9318 19.9468H24.9752V18.2077H31.9318V19.9468Z" fill="white"/>
</svg>
