<svg width="23" height="23" viewBox="0 0 23 23" fill="none" xmlns="http://www.w3.org/2000/svg">
<path d="M16.1724 1.90249C17.4329 1.90625 18.6406 2.40864 19.5319 3.29993C20.4232 4.19122 20.9256 5.39899 20.9294 6.65946V16.1724C20.9256 17.4329 20.4232 18.6406 19.5319 19.5319C18.6406 20.4232 17.4329 20.9256 16.1724 20.9294H6.65946C5.39899 20.9256 4.19122 20.4232 3.29993 19.5319C2.40864 18.6406 1.90625 17.4329 1.90249 16.1724V6.65946C1.90625 5.39899 2.40864 4.19122 3.29993 3.29993C4.19122 2.40864 5.39899 1.90625 6.65946 1.90249H16.1724ZM16.1724 0H6.65946C2.99668 0 0 2.99668 0 6.65946V16.1724C0 19.8352 2.99668 22.8319 6.65946 22.8319H16.1724C19.8352 22.8319 22.8319 19.8352 22.8319 16.1724V6.65946C22.8319 2.99668 19.8352 0 16.1724 0Z" fill="white"/>
<path d="M17.5996 6.65928C17.3174 6.65928 17.0415 6.57559 16.8068 6.41879C16.5721 6.26199 16.3892 6.03912 16.2812 5.77838C16.1732 5.51763 16.145 5.23071 16.2 4.9539C16.2551 4.67709 16.391 4.42282 16.5906 4.22325C16.7901 4.02369 17.0444 3.88778 17.3212 3.83272C17.598 3.77766 17.8849 3.80592 18.1457 3.91392C18.4064 4.02193 18.6293 4.20483 18.7861 4.4395C18.9429 4.67416 19.0266 4.95006 19.0266 5.23229C19.027 5.4198 18.9904 5.60554 18.9188 5.77885C18.8472 5.95216 18.7421 6.10964 18.6095 6.24222C18.4769 6.37481 18.3195 6.47991 18.1462 6.55148C17.9728 6.62305 17.7871 6.65968 17.5996 6.65928Z" fill="white"/>
<path d="M11.416 7.61049C12.1686 7.61049 12.9044 7.83368 13.5302 8.25183C14.156 8.66998 14.6438 9.26432 14.9318 9.95968C15.2198 10.655 15.2952 11.4202 15.1483 12.1584C15.0015 12.8966 14.6391 13.5746 14.1069 14.1069C13.5746 14.6391 12.8966 15.0015 12.1584 15.1483C11.4202 15.2952 10.655 15.2198 9.95968 14.9318C9.26432 14.6438 8.66999 14.156 8.25183 13.5302C7.83368 12.9044 7.6105 12.1686 7.6105 11.416C7.61157 10.407 8.01285 9.43972 8.72629 8.72628C9.43972 8.01285 10.407 7.61157 11.416 7.61049ZM11.416 5.70801C10.287 5.70801 9.18347 6.04277 8.2448 6.66997C7.30613 7.29717 6.57453 8.18863 6.1425 9.23163C5.71048 10.2746 5.59744 11.4223 5.81769 12.5295C6.03793 13.6368 6.58156 14.6538 7.37983 15.4521C8.17811 16.2504 9.19517 16.794 10.3024 17.0143C11.4096 17.2345 12.5573 17.1215 13.6003 16.6894C14.6433 16.2574 15.5348 15.5258 16.162 14.5871C16.7892 13.6485 17.1239 12.5449 17.1239 11.416C17.1239 9.90213 16.5226 8.45028 15.4521 7.37983C14.3817 6.30938 12.9298 5.70801 11.416 5.70801Z" fill="white"/>
</svg>
