<svg width="231" height="59" viewBox="0 0 231 59" fill="none" xmlns="http://www.w3.org/2000/svg">
<path d="M67.7183 32.9662V17.0939C67.7183 16.3292 67.9241 15.741 68.331 15.3341C68.7379 14.9273 69.3211 14.7264 70.0907 14.7264H80.6592C81.4239 14.7264 82.0121 14.8881 82.4189 15.2214C82.8258 15.5498 83.0269 16.0253 83.0269 16.6479C83.0269 17.2704 82.8258 17.7508 82.4189 18.0841C82.0121 18.4223 81.4239 18.589 80.6592 18.589H72.3015V23.4419H79.9827C80.7475 23.4419 81.3357 23.6036 81.7376 23.9222C82.1395 24.2457 82.3405 24.7114 82.3405 25.3241C82.3405 25.937 82.1395 26.4074 81.7376 26.7311C81.3357 27.0546 80.7475 27.2212 79.9827 27.2212H72.3015V32.9662C72.3015 33.7308 72.1053 34.3143 71.7133 34.7162C71.3211 35.118 70.7525 35.3191 70.0172 35.3191C69.2721 35.3191 68.6987 35.118 68.3065 34.7162C67.9144 34.3143 67.7183 33.7308 67.7183 32.9662ZM85.3367 20.7997C85.827 19.5056 86.5231 18.3832 87.43 17.4272C88.3319 16.4665 89.474 15.7165 90.8465 15.1724C92.219 14.6234 93.7435 14.3538 95.42 14.3538C97.0964 14.3538 98.6209 14.6234 99.9934 15.1724C101.366 15.7165 102.508 16.4665 103.41 17.4272C104.317 18.3832 105.013 19.5105 105.508 20.8096C106.003 22.1036 106.248 23.5106 106.248 25.0202C106.248 26.5349 106.003 27.9417 105.508 29.2457C105.013 30.5447 104.317 31.677 103.41 32.6329C102.508 33.5887 101.371 34.3388 100.003 34.873C98.6209 35.4172 97.0964 35.6916 95.42 35.6916C93.7435 35.6916 92.219 35.4221 90.8465 34.8828C89.474 34.3388 88.3319 33.5887 87.43 32.6329C86.5231 31.677 85.8221 30.5447 85.3319 29.2457C84.8368 27.9417 84.5916 26.5349 84.5916 25.0202C84.5916 23.5106 84.8418 22.1036 85.3367 20.7997ZM90.8367 29.9908C91.9102 31.2162 93.4396 31.829 95.42 31.829C97.4003 31.829 98.9297 31.2162 100.008 29.9908C101.086 28.7653 101.626 27.1085 101.626 25.0202C101.626 22.937 101.086 21.2802 100.008 20.0546C98.9297 18.8292 97.4003 18.2165 95.42 18.2165C93.4396 18.2165 91.9102 18.8292 90.8367 20.0546C89.7583 21.2802 89.2143 22.937 89.2143 25.0202C89.2143 27.1085 89.7583 28.7653 90.8367 29.9908ZM108.7 20.7997C109.19 19.5056 109.887 18.3832 110.793 17.4272C111.695 16.4665 112.837 15.7165 114.21 15.1724C115.583 14.6234 117.107 14.3538 118.783 14.3538C120.46 14.3538 121.984 14.6234 123.357 15.1724C124.729 15.7165 125.872 16.4665 126.773 17.4272C127.68 18.3832 128.376 19.5105 128.872 20.8096C129.367 22.1036 129.612 23.5106 129.612 25.0202C129.612 26.5349 129.367 27.9417 128.872 29.2457C128.376 30.5447 127.68 31.677 126.773 32.6329C125.872 33.5887 124.734 34.3388 123.367 34.873C121.984 35.4172 120.46 35.6916 118.783 35.6916C117.107 35.6916 115.583 35.4221 114.21 34.8828C112.837 34.3388 111.695 33.5887 110.793 32.6329C109.887 31.677 109.186 30.5447 108.695 29.2457C108.2 27.9417 107.955 26.5349 107.955 25.0202C107.955 23.5106 108.205 22.1036 108.7 20.7997ZM114.2 29.9908C115.274 31.2162 116.803 31.829 118.783 31.829C120.764 31.829 122.293 31.2162 123.372 29.9908C124.45 28.7653 124.989 27.1085 124.989 25.0202C124.989 22.937 124.45 21.2802 123.372 20.0546C122.293 18.8292 120.764 18.2165 118.783 18.2165C116.803 18.2165 115.274 18.8292 114.2 20.0546C113.122 21.2802 112.578 22.937 112.578 25.0202C112.578 27.1085 113.122 28.7653 114.2 29.9908ZM131.892 32.9516V17.0939C131.892 16.3292 132.098 15.741 132.505 15.3341C132.912 14.9273 133.495 14.7264 134.265 14.7264H139.922C141.407 14.7264 142.74 14.8978 143.921 15.241C145.103 15.589 146.093 16.0596 146.892 16.6625C147.691 17.2655 148.357 18.0058 148.887 18.8733C149.421 19.7458 149.804 20.6919 150.044 21.7065C150.284 22.7213 150.407 23.8241 150.407 25.0202C150.407 26.2212 150.284 27.3242 150.044 28.3388C149.804 29.3535 149.421 30.2996 148.887 31.1671C148.357 32.0397 147.691 32.7751 146.892 33.378C146.093 33.9858 145.103 34.4564 143.921 34.8044C142.74 35.1475 141.407 35.3191 139.922 35.3191H134.265C133.495 35.3191 132.912 35.1133 132.505 34.7064C132.098 34.2996 131.892 33.7161 131.892 32.9516ZM136.475 18.589V31.4565H139.922C143.838 31.4565 145.794 29.3095 145.794 25.0202C145.794 20.7311 143.838 18.589 139.922 18.589H136.475ZM152.682 17.0939C152.682 16.3292 152.888 15.741 153.295 15.3341C153.702 14.9273 154.285 14.7264 155.055 14.7264H162.261C163.457 14.7264 164.515 14.8341 165.437 15.0548C166.354 15.2753 167.094 15.5645 167.648 15.9175C168.202 16.2703 168.657 16.6969 169.01 17.1969C169.368 17.6919 169.609 18.1919 169.746 18.6871C169.878 19.187 169.947 19.7165 169.947 20.285C169.947 21.3193 169.672 22.2066 169.118 22.9468C168.569 23.6869 167.824 24.2017 166.888 24.4909C168.226 24.8928 169.197 25.5154 169.795 26.3634C170.393 27.2114 170.692 28.1919 170.692 29.2997C170.692 29.8976 170.608 30.4662 170.447 31.0202C170.285 31.5692 170.001 32.1084 169.599 32.6426C169.197 33.1721 168.697 33.6329 168.094 34.0202C167.491 34.4073 166.711 34.7211 165.751 34.9613C164.795 35.2014 163.711 35.3191 162.506 35.3191H155.055C154.285 35.3191 153.702 35.1133 153.295 34.7064C152.888 34.2996 152.682 33.7161 152.682 32.9516V17.0939ZM162.506 31.4712C164.854 31.4712 166.025 30.6525 166.025 29.0153C166.025 28.2505 165.77 27.6525 165.265 27.2261C164.756 26.7996 163.996 26.5889 162.981 26.5889H157.265V31.4712H162.506ZM162.849 22.9958C163.682 22.9958 164.3 22.7996 164.702 22.4026C165.104 22.0055 165.305 21.4762 165.305 20.8144C165.305 20.1135 165.084 19.5693 164.648 19.1772C164.206 18.785 163.412 18.589 162.261 18.589H157.265V22.9958H162.849ZM171.737 32.3044L178.129 16.9077C178.732 15.4421 179.776 14.7117 181.257 14.7117C182.732 14.7117 183.771 15.4421 184.374 16.9077L190.766 32.3044C190.938 32.7456 191.026 33.1476 191.026 33.5103C191.026 33.8241 190.923 34.1818 190.717 34.5789C190.511 34.9759 190.021 35.221 189.256 35.3191C189.114 35.3388 188.982 35.3485 188.854 35.3485C188.349 35.3485 187.889 35.2113 187.482 34.9466C187.075 34.677 186.732 34.177 186.443 33.4367L185.349 30.8094H177.154L176.06 33.4367C175.762 34.177 175.414 34.677 175.007 34.9466C174.6 35.2113 174.144 35.3485 173.649 35.3485C173.512 35.3485 173.379 35.3388 173.247 35.3191C172.467 35.221 171.977 34.9759 171.771 34.5789C171.565 34.1818 171.462 33.8289 171.462 33.525C171.462 33.1623 171.556 32.7554 171.737 32.3044ZM183.943 27.2065L181.257 20.54L178.575 27.2065H183.943ZM193.405 31.5839L202.914 18.589H195.042C194.277 18.589 193.689 18.4223 193.282 18.0841C192.875 17.7508 192.674 17.2704 192.674 16.6479C192.674 16.0253 192.875 15.5498 193.282 15.2214C193.689 14.8881 194.277 14.7264 195.042 14.7264H207.12C207.85 14.7264 208.399 14.8733 208.772 15.1627C209.144 15.4568 209.331 15.844 209.331 16.3341C209.331 16.986 209.051 17.6919 208.488 18.4566L198.963 31.4565H207.12C207.885 31.4565 208.473 31.6231 208.88 31.9515C209.287 32.2799 209.492 32.7604 209.492 33.378C209.492 34.0004 209.287 34.4809 208.88 34.8142C208.473 35.1524 207.885 35.3191 207.12 35.3191H194.772C194.032 35.3191 193.478 35.1769 193.106 34.8877C192.733 34.6034 192.547 34.2063 192.547 33.7113C192.547 33.0789 192.831 32.3682 193.405 31.5839ZM211.268 32.3044L217.66 16.9077C218.263 15.4421 219.307 14.7117 220.788 14.7117C222.263 14.7117 223.302 15.4421 223.905 16.9077L230.297 32.3044C230.469 32.7456 230.557 33.1476 230.557 33.5103C230.557 33.8241 230.454 34.1818 230.248 34.5789C230.042 34.9759 229.552 35.221 228.788 35.3191C228.645 35.3388 228.513 35.3485 228.385 35.3485C227.881 35.3485 227.42 35.2113 227.013 34.9466C226.606 34.677 226.263 34.177 225.974 33.4367L224.881 30.8094H216.685L215.592 33.4367C215.293 34.177 214.945 34.677 214.538 34.9466C214.131 35.2113 213.675 35.3485 213.18 35.3485C213.043 35.3485 212.91 35.3388 212.778 35.3191C211.999 35.221 211.508 34.9759 211.302 34.5789C211.097 34.1818 210.994 33.8289 210.994 33.525C210.994 33.1623 211.087 32.7554 211.268 32.3044ZM223.474 27.2065L220.788 20.54L218.106 27.2065H223.474Z" fill="#2B2A29"/>
<path d="M67.7529 47.0398V39.6011C67.7529 39.3143 67.8274 39.0977 67.9762 38.9467C68.125 38.7978 68.3439 38.7235 68.6305 38.7235H73.5022C74.6008 38.7235 75.4522 38.9971 76.0519 39.5442C76.6516 40.0913 76.9536 40.8595 76.9536 41.8508C76.9536 42.8445 76.6516 43.6126 76.0519 44.1597C75.4522 44.7069 74.6008 44.9805 73.5022 44.9805H69.4644V47.0398C69.4644 47.3222 69.3899 47.5388 69.2434 47.6898C69.0946 47.8409 68.8845 47.9174 68.6109 47.9174C68.3328 47.9174 68.1206 47.8431 67.9741 47.6921C67.8252 47.5432 67.7529 47.3244 67.7529 47.0398ZM73.5022 43.5185C74.0801 43.5185 74.5111 43.3719 74.7979 43.0807C75.0845 42.7876 75.2269 42.3784 75.2269 41.853C75.2269 41.3255 75.0845 40.9163 74.7979 40.6231C74.5111 40.332 74.0801 40.1854 73.5022 40.1854H69.4644V43.5185H73.5022ZM89.4041 39.6011C89.4041 39.3143 89.4785 39.0977 89.6273 38.9467C89.7762 38.7978 89.9952 38.7235 90.2817 38.7235H95.2957C96.3331 38.7235 97.145 38.9773 97.7294 39.485C98.3115 39.995 98.6047 40.7085 98.6047 41.6276C98.6047 42.3039 98.4167 42.8707 98.0401 43.3304C97.6637 43.7899 97.1734 44.0788 96.5717 44.1992L98.1431 46.7248C98.2611 46.913 98.3224 47.0924 98.3224 47.2631C98.3224 47.3113 98.3094 47.3987 98.2829 47.5301C98.2567 47.6593 98.1386 47.7686 97.9242 47.854C97.7994 47.9043 97.679 47.9306 97.5587 47.9306C97.1998 47.9306 96.8999 47.7445 96.6612 47.3725L94.8603 44.4487H91.1089V47.0398C91.1089 47.3244 91.0368 47.5432 90.8902 47.6921C90.7458 47.8431 90.5334 47.9174 90.2555 47.9174C89.9776 47.9174 89.7674 47.8431 89.6208 47.6921C89.4763 47.5432 89.4041 47.3244 89.4041 47.0398V39.6011ZM95.2957 43.0698C95.8385 43.0698 96.2389 42.943 96.4949 42.689C96.751 42.4352 96.8781 42.0807 96.8781 41.6276C96.8781 41.1746 96.751 40.8201 96.4949 40.5662C96.2389 40.3123 95.8385 40.1854 95.2957 40.1854H91.1089V43.0698H95.2957ZM111.003 41.8005C111.152 41.3255 111.384 40.8901 111.699 40.4896C112.012 40.0891 112.397 39.7477 112.852 39.461C113.307 39.1742 113.854 38.9488 114.493 38.7869C115.133 38.6249 115.837 38.544 116.605 38.544C117.376 38.544 118.078 38.6249 118.715 38.7869C119.352 38.9488 119.899 39.1742 120.354 39.461C120.81 39.7477 121.195 40.0891 121.508 40.4896C121.823 40.8901 122.055 41.3279 122.204 41.8049C122.352 42.2799 122.429 42.7854 122.429 43.3194C122.429 43.8556 122.352 44.361 122.204 44.836C122.055 45.3131 121.823 45.7508 121.508 46.1514C121.195 46.5497 120.81 46.8933 120.354 47.1799C119.899 47.4667 119.352 47.6898 118.715 47.854C118.078 48.016 117.376 48.0969 116.605 48.0969C115.837 48.0969 115.133 48.016 114.493 47.854C113.854 47.6898 113.307 47.4667 112.852 47.1799C112.397 46.8933 112.012 46.5497 111.699 46.1514C111.384 45.7508 111.152 45.3131 111.003 44.836C110.852 44.361 110.777 43.8556 110.777 43.3194C110.777 42.7854 110.852 42.2799 111.003 41.8005ZM112.508 43.3194C112.508 43.6235 112.541 43.9125 112.605 44.1861C112.67 44.4596 112.769 44.7222 112.902 44.9717C113.038 45.2212 113.218 45.4465 113.439 45.648C113.662 45.8493 113.92 46.0244 114.216 46.1731C114.509 46.322 114.861 46.438 115.266 46.5191C115.673 46.6 116.12 46.6416 116.605 46.6416C117.094 46.6416 117.54 46.6 117.943 46.5191C118.347 46.438 118.695 46.322 118.991 46.1731C119.286 46.0244 119.545 45.8493 119.768 45.648C119.989 45.4465 120.168 45.2212 120.302 44.9717C120.438 44.7222 120.536 44.4596 120.602 44.1861C120.665 43.9125 120.696 43.6235 120.696 43.3194C120.696 43.0174 120.665 42.7284 120.602 42.4549C120.536 42.1813 120.438 41.9187 120.302 41.6693C120.168 41.4197 119.989 41.1943 119.768 40.993C119.545 40.7917 119.286 40.6166 118.991 40.4678C118.695 40.3167 118.347 40.2029 117.943 40.1198C117.54 40.0387 117.094 39.9993 116.605 39.9993C116.12 39.9993 115.673 40.0387 115.266 40.1198C114.861 40.2029 114.509 40.3167 114.216 40.4678C113.92 40.6166 113.662 40.7917 113.439 40.993C113.218 41.1943 113.038 41.4197 112.902 41.6693C112.769 41.9187 112.67 42.1813 112.605 42.4549C112.541 42.7284 112.508 43.0174 112.508 43.3194ZM134.853 39.6011C134.853 39.3143 134.928 39.0977 135.077 38.9467C135.225 38.7978 135.444 38.7235 135.731 38.7235H140.104C140.872 38.7235 141.555 38.8395 142.148 39.0758C142.743 39.31 143.225 39.6382 143.592 40.0562C143.96 40.4765 144.236 40.9602 144.422 41.5095C144.608 42.0588 144.702 42.6628 144.702 43.3194C144.702 43.9781 144.608 44.5844 144.422 45.1359C144.236 45.6852 143.96 46.1711 143.592 46.5868C143.225 47.0026 142.743 47.3288 142.148 47.565C141.555 47.7994 140.872 47.9174 140.104 47.9174H135.731C135.444 47.9174 135.225 47.8431 135.077 47.6921C134.928 47.5432 134.853 47.3244 134.853 47.0398V39.6011ZM136.558 46.4621H140.104C141.049 46.4621 141.763 46.1798 142.244 45.6129C142.728 45.0461 142.969 44.2824 142.969 43.3194C142.969 42.3586 142.728 41.5948 142.244 41.0279C141.763 40.4612 141.049 40.1788 140.104 40.1788H136.558V46.4621ZM157.126 43.7811V39.6011C157.126 39.3143 157.198 39.0977 157.343 38.9467C157.489 38.7978 157.7 38.7235 157.978 38.7235C158.255 38.7235 158.468 38.7978 158.612 38.9467C158.759 39.0977 158.831 39.3143 158.831 39.6011V43.7811C158.831 44.7223 159.067 45.4335 159.538 45.9171C160.011 46.4009 160.774 46.6416 161.831 46.6416C162.886 46.6416 163.654 46.3986 164.134 45.9128C164.611 45.429 164.852 44.7178 164.852 43.7811V39.6011C164.852 39.3143 164.924 39.0977 165.068 38.9467C165.215 38.7978 165.425 38.7235 165.703 38.7235C165.981 38.7235 166.193 38.7978 166.338 38.9467C166.484 39.0977 166.556 39.3143 166.556 39.6011V43.7811C166.556 46.659 164.981 48.0969 161.831 48.0969C158.693 48.0969 157.126 46.659 157.126 43.7811ZM178.985 43.3194C178.985 42.7854 179.06 42.2799 179.211 41.8049C179.359 41.3279 179.591 40.8901 179.907 40.4896C180.219 40.0891 180.605 39.7477 181.06 39.461C181.515 39.1742 182.062 38.9488 182.699 38.7869C183.336 38.6249 184.039 38.544 184.807 38.544C185.975 38.544 186.995 38.7344 187.873 39.1152C188.146 39.2246 188.317 39.3493 188.389 39.4894C188.459 39.6273 188.494 39.7455 188.494 39.8396C188.494 39.9534 188.461 40.0715 188.398 40.1919C188.269 40.4393 188.061 40.5639 187.77 40.5639C187.621 40.5639 187.444 40.529 187.238 40.4612C186.45 40.1526 185.641 39.9993 184.807 39.9993C184.321 39.9993 183.874 40.0387 183.472 40.1198C183.067 40.2029 182.717 40.3167 182.423 40.4678C182.128 40.6166 181.87 40.7917 181.647 40.993C181.426 41.1943 181.246 41.4197 181.11 41.6693C180.977 41.9187 180.878 42.1813 180.813 42.4549C180.749 42.7284 180.716 43.0174 180.716 43.3194C180.716 43.6235 180.749 43.9125 180.813 44.1861C180.878 44.4596 180.977 44.7222 181.11 44.9717C181.246 45.2212 181.426 45.4465 181.647 45.648C181.87 45.8493 182.128 46.0244 182.423 46.1731C182.717 46.322 183.067 46.438 183.472 46.5191C183.874 46.6 184.321 46.6416 184.807 46.6416C185.641 46.6416 186.45 46.4883 187.238 46.1798C187.444 46.1119 187.621 46.077 187.77 46.077C188.061 46.077 188.269 46.2017 188.398 46.449C188.461 46.5694 188.494 46.6853 188.494 46.8013C188.494 46.8953 188.459 47.0136 188.389 47.1537C188.317 47.296 188.146 47.4186 187.873 47.5258C186.976 47.9065 185.954 48.0969 184.807 48.0969C184.039 48.0969 183.336 48.016 182.699 47.854C182.062 47.6898 181.515 47.4667 181.06 47.1799C180.605 46.8933 180.219 46.5497 179.907 46.1514C179.591 45.7508 179.359 45.3131 179.211 44.8338C179.06 44.3589 178.985 43.8556 178.985 43.3194ZM200.737 38.9094C200.888 38.7847 201.105 38.7235 201.391 38.7235H209.292C209.577 38.7235 209.795 38.7847 209.944 38.9094C210.095 39.032 210.17 39.2115 210.17 39.4478C210.17 39.6863 210.095 39.868 209.944 39.9928C209.795 40.1175 209.577 40.1788 209.292 40.1788H206.195V47.0398C206.195 47.3244 206.121 47.5432 205.976 47.6921C205.83 47.8431 205.62 47.9174 205.342 47.9174C205.064 47.9174 204.852 47.8431 204.707 47.6921C204.56 47.5432 204.488 47.3244 204.488 47.0398V40.1788H201.391C201.105 40.1788 200.888 40.1175 200.737 39.9928C200.588 39.868 200.514 39.6863 200.514 39.4478C200.514 39.2115 200.588 39.032 200.737 38.9094ZM222.222 46.3264C222.351 46.0791 222.557 45.9545 222.844 45.9545C222.999 45.9545 223.178 45.9893 223.382 46.0572C224.395 46.4467 225.417 46.6416 226.448 46.6416C228.332 46.6416 229.276 46.2039 229.276 45.3263C229.276 44.9345 229.068 44.6412 228.654 44.4487C228.238 44.256 227.468 44.0875 226.339 43.9431C225.559 43.8447 224.903 43.7155 224.367 43.5536C223.831 43.3937 223.406 43.1968 223.091 42.9605C222.776 42.7263 222.55 42.4637 222.415 42.1747C222.277 41.8881 222.209 41.5533 222.209 41.1725C222.209 40.7873 222.283 40.4393 222.434 40.1307C222.583 39.8199 222.817 39.5442 223.137 39.3034C223.454 39.0627 223.887 38.8745 224.437 38.7431C224.986 38.6096 225.636 38.544 226.382 38.544C227.669 38.544 228.796 38.7126 229.762 39.0495C230.053 39.1392 230.236 39.2509 230.311 39.3844C230.385 39.5158 230.422 39.6295 230.422 39.7237C230.422 39.8352 230.392 39.9534 230.326 40.0826C230.182 40.3561 229.954 40.4918 229.648 40.4918C229.532 40.4918 229.378 40.4678 229.186 40.4151C228.227 40.1373 227.31 39.9993 226.435 39.9993C225.597 39.9993 224.971 40.0913 224.557 40.2774C224.141 40.4633 223.933 40.7609 223.933 41.1725C223.933 41.5358 224.13 41.8071 224.52 41.9887C224.912 42.1703 225.623 42.3279 226.654 42.4615C227.422 42.5601 228.07 42.6781 228.593 42.8204C229.116 42.9605 229.565 43.1443 229.934 43.3675C230.306 43.5929 230.578 43.8643 230.746 44.1816C230.915 44.5011 231 44.8819 231 45.3263C231 46.2629 230.615 46.9589 229.842 47.414C229.07 47.8693 227.956 48.0969 226.498 48.0969C225.037 48.0969 223.782 47.8715 222.734 47.4229C222.458 47.3134 222.285 47.1865 222.22 47.0464C222.152 46.9043 222.119 46.7882 222.119 46.6984C222.119 46.5803 222.154 46.4555 222.222 46.3264Z" fill="#0066B2"/>
<path d="M48.8109 11.5837C48.6196 11.2535 48.7323 10.8299 49.0627 10.6387C49.3929 10.4473 49.8164 10.5602 50.0077 10.8904L54.6335 18.9023C54.8247 19.2325 54.7118 19.656 54.3816 19.8473C54.0512 20.0386 53.6279 19.9259 53.4365 19.5955L48.8109 11.5837ZM4.71907 10.893C4.90874 10.5628 5.33119 10.4486 5.66143 10.6384C5.99167 10.8281 6.10567 11.2504 5.916 11.5807L1.29003 19.5933C1.10036 19.9234 0.678037 20.0375 0.347672 19.8479C0.0175516 19.6582 -0.0964482 19.2358 0.0931016 18.9056L4.71907 10.893ZM25.2675 17.4839C25.4571 17.1535 25.8795 17.0396 26.2097 17.2293C26.5401 17.419 26.6539 17.8412 26.4643 18.1716L17.272 34.0931C17.0823 34.4234 16.66 34.5373 16.3297 34.3477C15.9995 34.158 15.8855 33.7357 16.0752 33.4055L25.2675 17.4839ZM25.2675 22.7541C25.4587 22.4237 25.8823 22.3108 26.2124 22.5022C26.5428 22.6936 26.6557 23.1169 26.4643 23.4472L21.8383 31.4593C21.6469 31.7895 21.2235 31.9024 20.8932 31.7111C20.5631 31.5198 20.4501 31.0963 20.6415 30.766L25.2675 22.7541ZM22.9848 0.347148C23.1745 0.0169049 23.5967 -0.0970948 23.927 0.0925774C24.2573 0.282372 24.3711 0.704696 24.1816 1.03494L1.29003 40.6843C1.10036 41.0146 0.678037 41.1285 0.347672 40.9388C0.0175516 40.7492 -0.0964482 40.3268 0.0931016 39.9965L22.9848 0.347148ZM25.2675 6.93608C25.4587 6.60584 25.8823 6.49306 26.2124 6.68445C26.5428 6.87572 26.6557 7.29914 26.4643 7.62938L8.13966 39.3684C7.94827 39.6987 7.52485 39.8117 7.1946 39.6203C6.86424 39.4289 6.75147 39.0055 6.94285 38.6753L25.2675 6.93608ZM25.2675 12.2085C25.4587 11.8782 25.8823 11.7654 26.2124 11.9567C26.5428 12.1481 26.6557 12.5714 26.4643 12.9018L12.7058 36.7321C12.5144 37.0624 12.0909 37.1754 11.7607 36.984C11.4303 36.7926 11.3176 36.3692 11.5088 36.039L25.2675 12.2085ZM25.2675 1.66567C25.4571 1.33542 25.8795 1.22155 26.2097 1.41122C26.5401 1.60077 26.6539 2.02322 26.4643 2.35334L3.57308 42.0023C3.38341 42.3325 2.96096 42.4465 2.63084 42.2569C2.30047 42.0672 2.18648 41.6449 2.37627 41.3146L25.2675 1.66567ZM13.852 5.61732C14.0434 5.28695 14.4668 5.17417 14.7972 5.36544C15.1274 5.55682 15.2402 5.98025 15.0488 6.31049L1.29003 30.1412C1.09865 30.4716 0.675343 30.5844 0.344978 30.3931C0.0147356 30.2017 -0.0981624 29.7782 0.0931016 29.4481L13.852 5.61732ZM18.4182 2.981C18.6093 2.65064 19.0329 2.53786 19.3631 2.72925C19.6934 2.92051 19.8063 3.34407 19.6149 3.67419L1.29003 35.4139C1.09865 35.7442 0.675343 35.857 0.344978 35.6656C0.0147356 35.4743 -0.0981624 35.0508 0.0931016 34.7207L18.4182 2.981ZM9.28565 8.25632C9.47532 7.9262 9.89777 7.81208 10.228 8.00175C10.5583 8.19154 10.6723 8.61387 10.4826 8.94411L1.29003 24.8662C1.10036 25.1965 0.678037 25.3104 0.347672 25.1207C0.0175516 24.9311 -0.0964482 24.5086 0.0931016 24.1785L9.28565 8.25632ZM22.7371 34.3997C22.3544 34.3997 22.0439 34.0893 22.0439 33.7066C22.0439 33.3239 22.3544 33.0133 22.7371 33.0133H31.9895C32.3723 33.0133 32.6827 33.3239 32.6827 33.7066C32.6827 34.0893 32.3723 34.3997 31.9895 34.3997H22.7371ZM18.1705 55.4905C17.7877 55.4905 17.4773 55.1799 17.4773 54.7973C17.4773 54.4145 17.7877 54.1041 18.1705 54.1041H36.5561C36.9389 54.1041 37.2493 54.4145 37.2493 54.7973C37.2493 55.1799 36.9389 55.4905 36.5561 55.4905H18.1705ZM22.7368 58.1268C22.3541 58.1268 22.0435 57.8162 22.0435 57.4336C22.0435 57.0508 22.3541 56.7404 22.7368 56.7404H31.9897C32.3725 56.7404 32.683 57.0508 32.683 57.4336C32.683 57.8162 32.3725 58.1268 31.9897 58.1268H22.7368ZM4.47234 44.945C4.08969 44.945 3.77904 44.6344 3.77904 44.2518C3.77904 43.8691 4.08969 43.5585 4.47234 43.5585H50.2542C50.6369 43.5585 50.9475 43.8691 50.9475 44.2518C50.9475 44.6344 50.6369 44.945 50.2542 44.945H4.47234ZM9.03843 50.2178C8.65566 50.2178 8.34501 49.9073 8.34501 49.5247C8.34501 49.142 8.65566 48.8315 9.03843 48.8315H45.6881C46.0709 48.8315 46.3816 49.142 46.3816 49.5247C46.3816 49.9073 46.0709 50.2178 45.6881 50.2178H9.03843ZM13.6044 52.8542C13.2217 52.8542 12.9112 52.5436 12.9112 52.161C12.9112 51.7783 13.2217 51.4678 13.6044 51.4678H41.1222C41.5048 51.4678 41.8154 51.7783 41.8154 52.161C41.8154 52.5436 41.5048 52.8542 41.1222 52.8542H13.6044ZM4.47234 47.5815C4.08969 47.5815 3.77904 47.271 3.77904 46.8884C3.77904 46.5057 4.08969 46.1952 4.47234 46.1952H50.2542C50.6369 46.1952 50.9475 46.5057 50.9475 46.8884C50.9475 47.271 50.6369 47.5815 50.2542 47.5815H4.47234ZM13.6048 39.6724C13.222 39.6724 12.9115 39.3618 12.9115 38.9792C12.9115 38.5965 13.222 38.2859 13.6048 38.2859H41.1218C41.5046 38.2859 41.8151 38.5965 41.8151 38.9792C41.8151 39.3618 41.5046 39.6724 41.1218 39.6724H13.6048ZM9.03868 42.3087C8.65602 42.3087 8.34537 41.9981 8.34537 41.6155C8.34537 41.2328 8.65602 40.9222 9.03868 40.9222H45.6879C46.0705 40.9222 46.3812 41.2328 46.3812 41.6155C46.3812 41.9981 46.0705 42.3087 45.6879 42.3087H9.03868ZM18.171 37.0361C17.7883 37.0361 17.4778 36.7255 17.4778 36.3429C17.4778 35.9602 17.7883 35.6496 18.171 35.6496H36.5556C36.9382 35.6496 37.2488 35.9602 37.2488 36.3429C37.2488 36.7255 36.9382 37.0361 36.5556 37.0361H18.171ZM28.2623 18.1738C28.0709 17.8434 28.1838 17.4201 28.5142 17.2288C28.8443 17.0374 29.2678 17.1502 29.4591 17.4805L38.652 33.403C38.8433 33.7331 38.7304 34.1567 38.4002 34.3479C38.0699 34.5393 37.6465 34.4264 37.4551 34.0962L28.2623 18.1738ZM28.2623 23.4439C28.0726 23.1136 28.1865 22.6914 28.5169 22.5017C28.8471 22.3119 29.2694 22.4259 29.4591 22.7563L34.0854 30.7692C34.2751 31.0994 34.161 31.5217 33.8309 31.7114C33.5005 31.9009 33.0782 31.7871 32.8885 31.4568L28.2623 23.4439ZM30.546 1.03824C30.3546 0.708002 30.4675 0.284574 30.7976 0.0931873C31.128 -0.0981993 31.5513 0.0146987 31.7426 0.344941L54.6335 39.9927C54.8247 40.3229 54.7118 40.7464 54.3816 40.9377C54.0512 41.129 53.6279 41.0162 53.4365 40.6859L30.546 1.03824ZM28.2623 7.62889C28.0709 7.29853 28.1838 6.87523 28.5142 6.68384C28.8443 6.49246 29.2678 6.60535 29.4591 6.93559L47.7841 38.6753C47.9753 39.0055 47.8626 39.4289 47.5322 39.6203C47.202 39.8117 46.7785 39.6987 46.5872 39.3684L28.2623 7.62889ZM28.2623 12.9015C28.0709 12.5711 28.1838 12.1478 28.5142 11.9565C28.8443 11.7651 29.2678 11.878 29.4591 12.2081L43.218 36.0393C43.4094 36.3694 43.2965 36.793 42.9662 36.9843C42.636 37.1756 42.2125 37.0626 42.0212 36.7325L28.2623 12.9015ZM28.2623 2.35652C28.0709 2.02615 28.1838 1.60273 28.5142 1.41147C28.8443 1.2202 29.2678 1.33298 29.4591 1.66322L52.3503 41.3116C52.5417 41.6418 52.4289 42.0652 52.0985 42.2566C51.7683 42.448 51.3449 42.335 51.1535 42.0047L28.2623 2.35652ZM39.6783 6.30804C39.4886 5.9778 39.6025 5.55548 39.9328 5.36581C40.2631 5.17601 40.6854 5.29014 40.8752 5.62038L54.6335 29.4505C54.823 29.7807 54.709 30.2031 54.3789 30.3927C54.0485 30.5824 53.6263 30.4685 53.4365 30.1382L39.6783 6.30804ZM35.1123 3.67174C34.9225 3.34149 35.0365 2.91917 35.3669 2.72949C35.697 2.53982 36.1194 2.65382 36.309 2.98406L54.6335 34.7229C54.823 35.0531 54.709 35.4754 54.3789 35.6651C54.0485 35.8548 53.6263 35.7409 53.4365 35.4105L35.1123 3.67174ZM44.2444 8.94705C44.053 8.61693 44.1657 8.19338 44.4961 8.00211C44.8264 7.81073 45.2498 7.9235 45.4412 8.25387L54.6335 24.1752C54.8247 24.5053 54.7118 24.9289 54.3816 25.1201C54.0512 25.3115 53.6279 25.1987 53.4365 24.8684L44.2444 8.94705Z" fill="#0066B2"/>
</svg>
