<svg width="33" height="41" viewBox="0 0 33 41" fill="none" xmlns="http://www.w3.org/2000/svg">
<path d="M28.9845 27.8855C29.2757 27.3275 29.4414 26.6907 29.4414 26.0147V24.102C29.4414 23.2445 29.4528 22.8404 29.5619 22.5687C29.6731 22.2922 29.9444 21.997 30.5369 21.3892L31.8557 20.0367C33.3679 18.4856 33.3679 15.9619 31.8557 14.411L30.537 13.0584C29.9458 12.4521 29.6752 12.158 29.5651 11.8868C29.4531 11.6108 29.4414 11.2051 29.4414 10.3456V8.43302C29.4414 6.23958 27.7014 4.45513 25.5629 4.45513H23.698C22.8619 4.45513 22.4679 4.44349 22.2031 4.33146C21.9335 4.21747 21.6456 3.93919 21.053 3.33138L19.7343 1.97888C19.0042 1.23005 18.0303 0.817627 16.9918 0.817627C15.9535 0.817627 14.9794 1.23005 14.2493 1.97888L12.9306 3.33138C12.3394 3.93778 12.0527 4.21528 11.7882 4.32817C11.519 4.44317 11.1236 4.45513 10.2856 4.45513H8.42067C6.28206 4.45513 4.54222 6.23958 4.54222 8.43302C4.54222 8.86442 4.88324 9.21427 5.30394 9.21427C5.72464 9.21427 6.06566 8.86442 6.06566 8.43302C6.06566 7.10114 7.12216 6.01763 8.42067 6.01763H10.2856C12.3029 6.01763 12.5813 5.89935 14.0078 4.4363L15.3266 3.0838C15.769 2.62997 16.3604 2.38013 16.9918 2.38013C17.6234 2.38013 18.2147 2.62997 18.6571 3.0838L19.9758 4.4363C21.4023 5.89942 21.6806 6.01763 23.698 6.01763H25.5629C26.8614 6.01763 27.9179 7.10114 27.9179 8.43302V10.3458C27.9179 12.4149 28.0332 12.7004 29.4597 14.1634L30.7785 15.516C31.6967 16.4577 31.6967 17.9901 30.7785 18.9319L29.4597 20.2844C28.0332 21.7475 27.918 22.0329 27.9179 24.1021V26.0148C27.9179 27.3467 26.8614 28.4302 25.5629 28.4302H23.698C21.6807 28.4302 21.4023 28.5485 19.9758 30.0115L18.657 31.364C17.7388 32.3058 16.2447 32.3058 15.3265 31.364L14.0077 30.0115C12.5812 28.5484 12.3029 28.4302 10.2855 28.4302H8.42059C7.12209 28.4302 6.06558 27.3466 6.06558 26.0147V24.102C6.06558 22.0329 5.95034 21.7474 4.52379 20.2843L3.20503 18.9318C2.28685 17.99 2.28685 16.4576 3.20503 15.5158C3.50248 15.2107 3.50248 14.7161 3.20503 14.4109C2.90758 14.1059 2.42525 14.1059 2.1278 14.4109C0.615564 15.962 0.61564 18.4857 2.1278 20.0366L3.44649 21.3892C4.03774 21.9955 4.3083 22.2896 4.41837 22.5608C4.53042 22.8368 4.54215 23.2425 4.54215 24.102V26.0147C4.54215 26.6906 4.7079 27.3275 4.9991 27.8855L1.20308 34.6289C0.898085 35.1701 0.929163 35.8261 1.28412 36.3411C1.63749 36.8538 2.22965 37.1008 2.82927 36.9863L6.32388 36.3205L7.48269 39.6813C7.65735 40.2846 8.16115 40.724 8.77464 40.8047C8.84129 40.8134 8.90771 40.8177 8.9736 40.8177C9.52181 40.8177 10.0328 40.5201 10.3123 40.0236L14.4552 32.664C15.1811 33.3088 16.0859 33.6323 16.9917 33.6322C17.8972 33.6322 18.8024 33.3086 19.5282 32.6639L23.671 40.0236C23.9506 40.5201 24.4615 40.8177 25.0098 40.8177C25.0756 40.8177 25.1421 40.8134 25.2087 40.8047C25.8223 40.724 26.3261 40.2845 26.5007 39.6812L27.6595 36.3205L31.1537 36.9862C31.7536 37.1004 32.3458 36.8537 32.6992 36.3411C33.0543 35.8261 33.0853 35.1701 32.7805 34.6293L28.9845 27.8855ZM8.9931 39.2422C8.98868 39.2501 8.98533 39.2539 8.98571 39.2539C8.97596 39.2579 8.9525 39.2526 8.94709 39.2465C8.94663 39.2459 8.9448 39.2425 8.94298 39.2355C8.93818 39.2175 8.93269 39.1997 8.92668 39.1822L7.54317 35.1698C7.41817 34.8072 7.05468 34.5916 6.68593 34.6622L2.55071 35.4501C2.54401 35.4514 2.54012 35.4514 2.54073 35.4517C2.53167 35.4475 2.51879 35.4267 2.52237 35.4105L6.04388 29.1547C6.70093 29.6792 7.52557 29.9927 8.42074 29.9927H10.2857C11.1217 29.9927 11.5158 30.0043 11.7806 30.1164C12.0502 30.2304 12.338 30.5086 12.9307 31.1164L13.3344 31.5304L8.9931 39.2422ZM31.4445 35.4513C31.4435 35.4513 31.4397 35.4515 31.4326 35.4501L27.2978 34.6622C26.9292 34.5922 26.5656 34.8073 26.4406 35.1699L25.0571 39.1822C25.051 39.1998 25.0456 39.2175 25.0408 39.2356C25.0389 39.2425 25.0371 39.246 25.0366 39.2466C25.0312 39.2529 25.0075 39.258 24.9993 39.2547C24.9984 39.2539 24.9951 39.25 24.9906 39.2422L20.6495 31.5304L21.0531 31.1165C21.6443 30.51 21.931 30.2325 22.1954 30.1197C22.4646 30.0047 22.86 29.9927 23.6981 29.9927H25.563C26.4582 29.9927 27.2828 29.6792 27.9399 29.1548L31.4645 35.4168C31.4649 35.4267 31.4521 35.4475 31.4445 35.4513Z" fill="white"/>
<path d="M23.0129 13.2679C23.0129 12.044 22.0419 11.0483 20.8486 11.0483H20.0095C19.8381 11.0483 19.5512 11.0482 19.4963 11.025C19.4397 11.0011 19.2288 10.7847 19.1154 10.6683L18.522 10.0598C18.1142 9.64161 17.5708 9.41138 16.9916 9.41138C16.4125 9.41138 15.8689 9.64161 15.4613 10.0598L14.8679 10.6684C14.7468 10.7927 14.5439 11.0007 14.4891 11.0241C14.4326 11.0483 14.1342 11.0483 13.9739 11.0483H13.1346C11.9412 11.0484 10.9704 12.0442 10.9704 13.268V14.1288C10.9704 14.3045 10.9704 14.5987 10.9478 14.655C10.9245 14.713 10.7135 14.9294 10.6001 15.0457L10.0067 15.6543C9.59899 16.0725 9.37451 16.6298 9.37451 17.224C9.37451 17.818 9.59907 18.3754 10.0067 18.7936L10.6002 19.4022C10.7213 19.5265 10.9241 19.7344 10.9469 19.7907C10.9705 19.8486 10.9705 20.1547 10.9705 20.3192V21.1799C10.9705 22.4039 11.9414 23.3997 13.1347 23.3997H13.9739C14.1453 23.3997 14.4321 23.3997 14.4869 23.4229C14.5435 23.4468 14.7545 23.6632 14.868 23.7796L15.4613 24.3881C15.8833 24.8208 16.4374 25.0372 16.9917 25.0372C17.5458 25.0372 18.1002 24.8208 18.5221 24.3881L19.1155 23.7795C19.2367 23.6552 19.4395 23.4472 19.4943 23.4237C19.5508 23.3996 19.8492 23.3996 20.0095 23.3996H20.8487C22.0421 23.3996 23.013 22.4038 23.013 21.1798V20.3191C23.013 20.1434 23.013 19.8492 23.0356 19.7929C23.0589 19.7349 23.2699 19.5185 23.3833 19.4022L23.9767 18.7936C24.3844 18.3754 24.609 17.818 24.609 17.224C24.609 16.6299 24.3844 16.0725 23.9767 15.6543L23.3833 15.0457C23.2621 14.9214 23.0593 14.7134 23.0365 14.6572C23.0129 14.5993 23.0129 14.2932 23.0129 14.1287V13.2679C23.0129 13.2679 23.0129 13.2679 23.0129 13.2679ZM22.8993 17.6887L22.306 18.2972C21.5887 19.0329 21.4895 19.2786 21.4894 20.319V21.1797C21.4894 21.5422 21.2019 21.837 20.8486 21.837H20.0093C18.9949 21.837 18.7555 21.9388 18.0381 22.6745L17.4447 23.2831C17.1948 23.5394 16.7882 23.5393 16.5384 23.2831L15.945 22.6746C15.2277 21.9388 14.9882 21.837 13.9738 21.837H13.1346C12.7812 21.837 12.4937 21.5422 12.4937 21.1797V20.319C12.4937 19.2786 12.3946 19.0329 11.6773 18.2972L11.0838 17.6886C10.964 17.5656 10.8979 17.4005 10.8979 17.2239C10.8979 17.0472 10.9639 16.8822 11.084 16.759L11.6773 16.1505C12.3946 15.4149 12.4937 15.1692 12.4938 14.1287V13.2679C12.4938 12.9055 12.7813 12.6108 13.1347 12.6107H13.9739C14.9884 12.6107 15.2279 12.5089 15.9452 11.7733L16.5386 11.1647C16.6585 11.0416 16.8194 10.9739 16.9917 10.9739C17.164 10.9739 17.3249 11.0416 17.4448 11.1647L18.0382 11.7732C18.7555 12.5089 18.9949 12.6107 20.0095 12.6108H20.8487C21.202 12.6108 21.4895 12.9056 21.4895 13.268V14.1287C21.4895 15.1691 21.5887 15.4147 22.306 16.1505L22.8994 16.7592C23.1492 17.0154 23.1492 17.4323 22.8993 17.6887Z" fill="white"/>
<path d="M5.12384 12.963C5.54454 12.963 5.88556 12.6132 5.88556 12.1818C5.88556 11.7504 5.54454 11.4005 5.12384 11.4005H5.12323C4.70253 11.4005 4.36182 11.7504 4.36182 12.1818C4.36182 12.6132 4.70314 12.963 5.12384 12.963Z" fill="white"/>
</svg>
