<svg width="40" height="41" viewBox="0 0 40 41" fill="none" xmlns="http://www.w3.org/2000/svg">
<path d="M19.7335 10.7395C20.1447 10.7395 20.4806 10.4044 20.4943 9.98572C20.5288 9.59845 20.1956 9.177 19.7335 9.177C19.2735 9.177 18.9381 9.59723 18.9727 9.98572C18.9863 10.4044 19.3223 10.7395 19.7335 10.7395Z" fill="white"/>
<path d="M38.7111 17.7118L35.43 16.973C35.0429 15.2857 34.3999 13.6866 33.5135 12.2068L35.4467 9.17673C35.6443 8.86728 35.6029 8.45804 35.3479 8.19651L32.116 4.8817C31.861 4.62016 31.462 4.57805 31.1602 4.78038L28.2059 6.7631C26.7631 5.85429 25.204 5.19481 23.5592 4.79778L22.8388 1.43231C22.762 1.07403 22.4523 0.818604 22.0946 0.818604H17.5243C17.1667 0.818604 16.857 1.07403 16.7802 1.43231L16.0598 4.79778C14.415 5.19481 12.8559 5.85429 11.4131 6.7631L8.45874 4.78038C8.15733 4.57805 7.75802 4.62016 7.50302 4.8817L4.27109 8.19651C4.01609 8.45804 3.97473 8.86728 4.1723 9.17673L6.10545 12.2068C5.21907 13.6866 4.57607 15.2857 4.18896 16.973L0.907934 17.7118C0.558616 17.7903 0.30957 18.108 0.30957 18.4748V23.1623C0.30957 23.5291 0.558318 23.8468 0.907636 23.9255L4.22199 24.6729C4.61803 26.3468 5.26072 27.9245 6.13729 29.3762L4.1723 32.4606C3.97503 32.7701 4.01639 33.179 4.27109 33.4405L7.50302 36.7554C7.75802 37.0166 8.15643 37.059 8.45814 36.857L11.5062 34.8163C12.9189 35.693 14.4382 36.3318 16.0345 36.7206C16.2547 37.7325 16.7466 40.0229 16.7769 40.1837C16.8453 40.552 17.1596 40.8185 17.5252 40.8185H22.0946C22.452 40.8185 22.7614 40.5636 22.8385 40.2054L23.5877 36.7197C25.1829 36.3312 26.7009 35.6924 28.1128 34.8163L31.1608 36.857C31.4626 37.059 31.861 37.0169 32.116 36.7554L35.3479 33.4405C35.6029 33.179 35.6443 32.7701 35.447 32.4606L33.4817 29.3762C34.3583 27.9245 35.001 26.3468 35.3973 24.6729L38.7114 23.9255C39.0607 23.8468 39.3097 23.5291 39.3097 23.1623V18.4748C39.3094 18.108 39.0604 17.7903 38.7111 17.7118ZM37.786 22.5342L34.5978 23.2532C34.3053 23.3191 34.0777 23.5547 34.0158 23.855C33.6388 25.69 32.9405 27.4036 31.9398 28.9478C31.7714 29.2081 31.7702 29.5462 31.9368 29.8074L33.8331 32.7844L31.4759 35.202L28.5377 33.2346C28.2854 33.0658 27.9599 33.0652 27.7072 33.233C26.1966 34.2374 24.544 34.9322 22.7957 35.2991C22.5011 35.361 22.2696 35.5951 22.2047 35.8963L21.4826 39.256H18.1403C17.9064 38.1579 17.447 36.0278 17.4092 35.8737C17.3378 35.5826 17.1099 35.3595 16.8233 35.2994C15.075 34.9322 13.4224 34.2374 11.9118 33.2333C11.6591 33.0652 11.3333 33.0658 11.0813 33.2349L8.14304 35.202L5.78589 32.7844L7.68215 29.8078C7.84907 29.5462 7.84758 29.2081 7.67917 28.9481C6.67853 27.4036 5.98019 25.6903 5.6032 23.855C5.54131 23.5547 5.31369 23.3191 5.0212 23.2532L1.833 22.5342V19.1031L4.99234 18.3918C5.28691 18.3256 5.51542 18.0872 5.57553 17.7839C5.93972 15.94 6.63717 14.206 7.64823 12.6304C7.81515 12.3704 7.81545 12.0335 7.64942 11.7728L5.78619 8.85263L8.14275 6.43565L10.99 8.34665C11.2441 8.51694 11.5725 8.51663 11.8261 8.34543C13.3623 7.30845 15.0529 6.59312 16.8507 6.21958C17.1465 6.15794 17.3788 5.92356 17.4434 5.62144L18.137 2.3811H21.482L22.1756 5.62144C22.2401 5.92356 22.4728 6.15824 22.7683 6.21958C24.5661 6.59312 26.2567 7.30845 27.7932 8.34543C28.0467 8.51663 28.3749 8.51694 28.629 8.34665L31.4762 6.43565L33.8328 8.85263L31.9696 11.7732C31.8035 12.0335 31.8038 12.3704 31.9708 12.6304C32.9821 14.206 33.6796 15.94 34.0438 17.7839C34.1036 18.0872 34.3321 18.3256 34.6269 18.3921L37.786 19.1031V22.5342Z" fill="white"/>
<path d="M31.1174 19.8926C30.7866 15.4121 27.7486 11.1622 22.9736 9.65525C22.5713 9.5283 22.1453 9.75993 22.0218 10.1722C21.898 10.5848 22.1235 11.0218 22.5255 11.1488C26.4629 12.3914 29.306 15.9589 29.5997 20.0263C29.6002 20.0333 29.6008 20.0406 29.6014 20.048C29.6014 20.0486 29.6017 20.0495 29.6017 20.0501C30.0969 26.1087 25.4123 31.052 19.7334 31.052C14.2731 31.052 9.83105 26.496 9.83105 20.8957C9.83105 16.2464 12.4286 12.6917 16.9579 11.1433C17.3569 11.0069 17.5726 10.5644 17.4396 10.1551C17.3066 9.74589 16.8754 9.52403 16.4761 9.66105C11.3613 11.4097 8.30762 15.6095 8.30762 20.8957C8.30762 27.3575 13.4331 32.6144 19.7334 32.6144C26.6046 32.6144 31.8259 26.3892 31.1174 19.8926Z" fill="white"/>
<path d="M18.4331 23.7919C18.5819 23.9445 18.7768 24.0208 18.9717 24.0208C19.1666 24.0208 19.3615 23.9445 19.5102 23.7919L23.3188 19.8856C23.6164 19.5807 23.6164 19.0861 23.3188 18.7809C23.0213 18.4757 22.5393 18.4757 22.2417 18.7809L18.9717 22.1348L17.9868 21.1246C17.6893 20.8195 17.2072 20.8195 16.9097 21.1246C16.6121 21.4298 16.6121 21.9242 16.9097 22.2294L18.4331 23.7919Z" fill="white"/>
<path d="M12.1162 20.8958C12.1162 25.2036 15.5332 28.7083 19.7334 28.7083C23.9336 28.7083 27.3506 25.2036 27.3506 20.8958C27.3506 16.5879 23.9336 13.0833 19.7334 13.0833C15.5332 13.0833 12.1162 16.5879 12.1162 20.8958ZM19.7334 14.6458C23.0936 14.6458 25.8271 17.4497 25.8271 20.8958C25.8271 24.3421 23.0936 27.1458 19.7334 27.1458C16.3732 27.1458 13.6396 24.3421 13.6396 20.8958C13.6396 17.4497 16.3732 14.6458 19.7334 14.6458Z" fill="white"/>
</svg>
