<svg width="23" height="23" viewBox="0 0 23 23" fill="none" xmlns="http://www.w3.org/2000/svg">
<path d="M22.6408 0.360806C22.4728 0.192858 22.2599 0.0770453 22.0276 0.0273108C21.7953 -0.0224237 21.5536 -0.00395975 21.3316 0.0804797L0.793953 7.85414H0.789846C0.553044 7.94522 0.35013 8.10718 0.208818 8.31791C0.067506 8.52863 -0.0053146 8.77784 0.000302107 9.03149C0.00591882 9.28515 0.089699 9.53089 0.2402 9.73515C0.390701 9.93941 0.600585 10.0922 0.841186 10.1727L0.862236 10.1794L7.91126 13.1896C8.04875 13.2313 8.19478 13.2363 8.33478 13.2039C8.47478 13.1716 8.60384 13.1031 8.70909 13.0053L20.0224 2.46325C20.0562 2.42954 20.0962 2.4028 20.1402 2.38456C20.1843 2.36631 20.2315 2.35692 20.2792 2.35692C20.3268 2.35692 20.374 2.36631 20.4181 2.38456C20.4621 2.4028 20.5021 2.42954 20.5359 2.46325C20.5696 2.49696 20.5963 2.53699 20.6145 2.58103C20.6328 2.62508 20.6422 2.67229 20.6422 2.71996C20.6422 2.76764 20.6328 2.81485 20.6145 2.85889C20.5963 2.90294 20.5696 2.94296 20.5359 2.97667L9.99363 14.2852C9.89581 14.3905 9.82732 14.5195 9.79497 14.6595C9.76263 14.7995 9.76758 14.9456 9.80932 15.0831L12.8204 22.1364C12.8235 22.1467 12.8266 22.1559 12.8302 22.1657C12.9945 22.6416 13.4103 22.9774 13.9129 23H13.9643C14.218 23.0014 14.4663 22.9265 14.6769 22.7849C14.8875 22.6434 15.0507 22.4417 15.1451 22.2062L22.9175 1.67362C23.0032 1.45145 23.0226 1.20923 22.9735 0.976245C22.9244 0.743263 22.8088 0.529499 22.6408 0.360806Z" fill="white"/>
</svg>
